<?xml version="1.0" encoding="utf-8"?>
<!-- Generator: Adobe Illustrator 27.8.0, SVG Export Plug-In . SVG Version: 6.00 Build 0)  -->
<svg version="1.1" id="Layer_2_00000016043579764386054300000002197626297778303635_"
	 xmlns="http://www.w3.org/2000/svg" xmlns:xlink="http://www.w3.org/1999/xlink" x="0px" y="0px" viewBox="0 0 189.4 78.1"
	 style="enable-background:new 0 0 189.4 78.1;" xml:space="preserve">
<style type="text/css">
	.st0{enable-background:new    ;}
	.st1{fill:#FFFFFF;}
	.st2{fill:none;stroke:#000000;stroke-width:0.17;stroke-miterlimit:10;}
</style>
<g id="Layer_1-2">
	<g class="st0">
		<path class="st1" d="M81.3,8v11.4h4.5V22h-7.9V8H81.3z"/>
	</g>
	<g class="st0">
		<path class="st1" d="M92,22.2c-3.3,0-5.8-2.2-5.8-5.7s2.5-5.7,5.8-5.7c3.3,0,5.8,2.2,5.8,5.7S95.3,22.2,92,22.2z M92,19.2
			c1.2,0,2.4-0.9,2.4-2.8c0-1.9-1.1-2.8-2.3-2.8c-1.2,0-2.3,0.9-2.3,2.8C89.7,18.3,90.8,19.2,92,19.2z"/>
	</g>
	<g class="st0">
		<path class="st1" d="M106.9,15.9c0-1.5-0.8-2.4-2.1-2.4c-1.3,0-2.1,0.8-2.1,2.4V22h-3.4V10.8h3.4v1.5c0.7-0.9,1.9-1.6,3.4-1.6
			c2.6,0,4.3,1.8,4.3,4.8V22h-3.4V15.9z"/>
		<path class="st1" d="M116.5,10.7c1.5,0,2.8,0.7,3.4,1.7V7.2h3.4V22H120v-1.6c-0.6,1-1.8,1.8-3.4,1.8c-2.7,0-4.9-2.2-4.9-5.8
			C111.6,12.9,113.8,10.7,116.5,10.7z M117.5,13.7c-1.3,0-2.4,1-2.4,2.7s1.2,2.8,2.4,2.8c1.3,0,2.4-1,2.4-2.8S118.8,13.7,117.5,13.7
			z"/>
	</g>
	<g class="st0">
		<path class="st1" d="M130.5,22.2c-3.3,0-5.8-2.2-5.8-5.7s2.5-5.7,5.8-5.7c3.3,0,5.8,2.2,5.8,5.7S133.8,22.2,130.5,22.2z
			 M130.5,19.2c1.2,0,2.4-0.9,2.4-2.8c0-1.9-1.1-2.8-2.3-2.8c-1.2,0-2.3,0.9-2.3,2.8C128.2,18.3,129.3,19.2,130.5,19.2z"/>
	</g>
	<g class="st0">
		<path class="st1" d="M145.4,15.9c0-1.5-0.8-2.4-2.1-2.4c-1.3,0-2.1,0.8-2.1,2.4V22h-3.4V10.8h3.4v1.5c0.7-0.9,1.9-1.6,3.4-1.6
			c2.6,0,4.3,1.8,4.3,4.8V22h-3.4V15.9z"/>
	</g>
	<g class="st0">
		<path class="st1" d="M86.7,41.5h-5.2L80.6,44H77l5.1-14h4l5.1,14h-3.6L86.7,41.5z M84,33.7l-1.7,5.1h3.5L84,33.7z"/>
	</g>
	<g class="st0">
		<path class="st1" d="M95.5,44h-3.4V32.8h3.4v1.9c0.8-1.2,2-2,3.5-2v3.6h-0.9c-1.6,0-2.6,0.6-2.6,2.5V44z"/>
	</g>
	<g class="st0">
		<path class="st1" d="M106.9,32.7c2.8,0,4.9,2.2,4.9,5.7c0,3.5-2.2,5.8-4.9,5.8c-1.6,0-2.8-0.7-3.4-1.7V44H100V29.2h3.4v5.2
			C104,33.4,105.3,32.7,106.9,32.7z M105.8,35.7c-1.3,0-2.4,1-2.4,2.8c0,1.8,1.2,2.8,2.4,2.8c1.3,0,2.5-1,2.5-2.8
			C108.3,36.6,107.1,35.7,105.8,35.7z"/>
	</g>
	<g class="st0">
		<path class="st1" d="M112.8,29.8c0-1,0.8-1.9,2-1.9c1.2,0,2,0.8,2,1.9c0,1-0.8,1.8-2,1.8C113.6,31.7,112.8,30.9,112.8,29.8z
			 M113.1,32.8h3.4V44h-3.4V32.8z"/>
	</g>
	<g class="st0">
		<path class="st1" d="M119,35.7h-1.4v-2.8h1.4v-2.7h3.4v2.7h2.2v2.8h-2.2v4.5c0,0.7,0.3,0.9,1,0.9h1.2V44H123c-2.3,0-3.9-1-3.9-3.9
			V35.7z"/>
	</g>
	<g class="st0">
		<path class="st1" d="M129.7,44h-3.4V32.8h3.4v1.9c0.8-1.2,2-2,3.5-2v3.6h-0.9c-1.6,0-2.6,0.6-2.6,2.5V44z"/>
	</g>
	<g class="st0">
		<path class="st1" d="M138.6,32.7c1.7,0,2.8,0.8,3.4,1.7v-1.6h3.4V44h-3.4v-1.6c-0.6,1-1.8,1.7-3.5,1.7c-2.7,0-4.9-2.2-4.9-5.8
			C133.7,34.9,135.9,32.7,138.6,32.7z M139.6,35.7c-1.3,0-2.4,1-2.4,2.7c0,1.8,1.2,2.8,2.4,2.8c1.3,0,2.4-1,2.4-2.8
			C142.1,36.6,140.9,35.7,139.6,35.7z"/>
	</g>
	<g class="st0">
		<path class="st1" d="M148.1,35.7h-1.4v-2.8h1.4v-2.7h3.4v2.7h2.2v2.8h-2.2v4.5c0,0.7,0.3,0.9,1,0.9h1.2V44H152
			c-2.3,0-3.9-1-3.9-3.9V35.7z"/>
	</g>
	<g class="st0">
		<path class="st1" d="M155,29.8c0-1,0.8-1.9,2-1.9c1.2,0,2,0.8,2,1.9c0,1-0.8,1.8-2,1.8C155.8,31.7,155,30.9,155,29.8z M155.3,32.8
			h3.4V44h-3.4V32.8z"/>
	</g>
	<g class="st0">
		<path class="st1" d="M165.8,44.2c-3.3,0-5.8-2.2-5.8-5.7c0-3.5,2.5-5.7,5.8-5.7c3.3,0,5.8,2.2,5.8,5.7
			C171.6,42,169,44.2,165.8,44.2z M165.8,41.2c1.2,0,2.4-0.9,2.4-2.8c0-1.9-1.1-2.8-2.3-2.8c-1.2,0-2.3,0.9-2.3,2.8
			C163.5,40.3,164.5,41.2,165.8,41.2z"/>
	</g>
	<g class="st0">
		<path class="st1" d="M180.6,37.9c0-1.5-0.8-2.4-2.1-2.4c-1.3,0-2.1,0.8-2.1,2.4V44h-3.4V32.8h3.4v1.5c0.7-0.9,1.9-1.6,3.4-1.6
			c2.6,0,4.3,1.8,4.3,4.8V44h-3.4V37.9z"/>
	</g>
	<g class="st0">
		<path class="st1" d="M77.2,52h3.7l2,10.2L85.4,52h3.8l2.4,10.2l2-10.2h3.7l-3.7,14h-4.1l-2.2-9.2L84.9,66h-4.1L77.2,52z"/>
	</g>
	<g class="st0">
		<path class="st1" d="M102.9,66.2c-3.3,0-5.6-2.2-5.6-5.7s2.3-5.7,5.6-5.7c3.3,0,5.6,2.2,5.6,5.6c0,0.3,0,0.7-0.1,1h-7.7
			c0.1,1.5,1,2.1,2.1,2.1c1,0,1.5-0.5,1.8-1.1h3.6C107.6,64.5,105.6,66.2,102.9,66.2z M100.6,59.3h4.3c0-1.2-1-1.9-2.1-1.9
			C101.7,57.4,100.8,58.1,100.6,59.3z"/>
	</g>
	<g class="st0">
		<path class="st1" d="M114.8,66.2c-3.3,0-5.6-2.2-5.6-5.7s2.3-5.7,5.6-5.7c3.3,0,5.6,2.2,5.6,5.6c0,0.3,0,0.7-0.1,1h-7.7
			c0.1,1.5,1,2.1,2.1,2.1c1,0,1.5-0.5,1.8-1.1h3.6C119.6,64.5,117.6,66.2,114.8,66.2z M112.6,59.3h4.3c0-1.2-1-1.9-2.1-1.9
			C113.6,57.4,112.8,58.1,112.6,59.3z"/>
	</g>
	<g class="st0">
		<path class="st1" d="M121.7,51.2h3.4v8.2l3.4-4.5h4.2l-4.6,5.6l4.7,5.6h-4.2l-3.4-4.7V66h-3.4V51.2z"/>
	</g>
	<polygon class="st1" points="25.9,18.3 16.3,18.3 16.3,0.2 0.1,0.2 0.1,18.3 0.1,36.4 16.3,36.4 17.8,36.4 	"/>
	<polygon class="st2" points="25.9,18.3 16.3,18.3 16.3,0.2 0.1,0.2 0.1,18.3 0.1,36.4 16.3,36.4 17.8,36.4 	"/>
	<polygon class="st1" points="25.9,18.3 34,36.4 50.2,36.4 34,0.2 	"/>
	<polygon class="st2" points="25.9,18.3 34,36.4 50.2,36.4 34,0.2 	"/>
	<polygon class="st1" points="59,57.3 50.9,39.2 34.7,39.2 51,75.4 	"/>
	<polygon class="st2" points="59,57.3 50.9,39.2 34.7,39.2 51,75.4 	"/>
	<polygon class="st1" points="38.1,57.3 30,39.2 13.8,39.2 30,75.4 	"/>
	<polygon class="st2" points="38.1,57.3 30,39.2 13.8,39.2 30,75.4 	"/>
</g>
</svg>
