<?xml version="1.0" encoding="utf-8"?>
<!-- Generator: Adobe Illustrator 27.8.0, SVG Export Plug-In . SVG Version: 6.00 Build 0)  -->
<svg version="1.1" id="Layer_2_00000000910574264234218030000001060326500691953028_"
	 xmlns="http://www.w3.org/2000/svg" xmlns:xlink="http://www.w3.org/1999/xlink" x="0px" y="0px" viewBox="0 0 30 30"
	 style="enable-background:new 0 0 30 30;" xml:space="preserve">
<style type="text/css">
	.st0{fill:#FFFFFF;}
	.st1{enable-background:new    ;}
	.st2{fill:#D1B5A9;}
	.st3{fill:none;stroke:#FFFFFF;}
</style>
<g id="Layer_1-2">
	<rect x="0.5" y="0.5" class="st0" width="29" height="29"/>
	<g class="st1">
		<path class="st2" d="M8.9,9.4c0-0.7,0.6-1.3,1.4-1.3c0.8,0,1.4,0.6,1.4,1.3c0,0.7-0.6,1.3-1.4,1.3C9.4,10.7,8.9,10.1,8.9,9.4z
			 M9.1,11.5h2.4v7.8H9.1V11.5z"/>
		<path class="st2" d="M18.6,15.1c0-1.1-0.6-1.7-1.5-1.7s-1.5,0.6-1.5,1.7v4.2h-2.4v-7.8h2.4v1c0.5-0.7,1.3-1.1,2.4-1.1
			c1.8,0,3,1.2,3,3.3v4.6h-2.4V15.1z"/>
	</g>
	<rect x="0.5" y="0.5" class="st3" width="29" height="29"/>
</g>
</svg>
